<?xml version="1.0" encoding="UTF-8" standalone="no"?><svg xmlns="http://www.w3.org/2000/svg" xmlns:xlink="http://www.w3.org/1999/xlink" contentScriptType="application/ecmascript" contentStyleType="text/css" height="375px" preserveAspectRatio="none" style="width:868px;height:375px;" version="1.1" viewBox="0 0 868 375" width="868px" zoomAndPan="magnify"><defs><filter height="300%" id="fxllddjtmz1fw" width="300%" x="-1" y="-1"><feGaussianBlur result="blurOut" stdDeviation="2.0"/><feColorMatrix in="blurOut" result="blurOut2" type="matrix" values="0 0 0 0 0 0 0 0 0 0 0 0 0 0 0 0 0 0 .4 0"/><feOffset dx="4.0" dy="4.0" in="blurOut2" result="blurOut3"/><feBlend in="SourceGraphic" in2="blurOut3" mode="normal"/></filter></defs><g><!--MD5=[0c8f053d69525b371c1ef89cd2a6712e]
class AgenceBancaire1--><rect codeLine="9" fill="#F0F8FF" filter="url(#fxllddjtmz1fw)" height="138.6855" id="AgenceBancaire1" rx="5" ry="5" style="stroke: #2F4F4F; stroke-width: 1.5;" width="259" x="7" y="7"/><ellipse cx="83.25" cy="23" fill="#ADD1B2" rx="11" ry="11" style="stroke: #2F4F4F; stroke-width: 1.0;"/><path d="M85.7231,29.1431 Q85.1421,29.4419 84.5029,29.5913 Q83.8638,29.7407 83.1582,29.7407 Q80.6514,29.7407 79.3315,28.0889 Q78.0117,26.437 78.0117,23.3159 Q78.0117,20.1865 79.3315,18.5347 Q80.6514,16.8828 83.1582,16.8828 Q83.8638,16.8828 84.5112,17.0322 Q85.1587,17.1816 85.7231,17.4805 L85.7231,20.2031 Q85.0923,19.6221 84.4988,19.3523 Q83.9053,19.0825 83.2744,19.0825 Q81.9297,19.0825 81.2449,20.1492 Q80.5601,21.2158 80.5601,23.3159 Q80.5601,25.4077 81.2449,26.4744 Q81.9297,27.541 83.2744,27.541 Q83.9053,27.541 84.4988,27.2712 Q85.0923,27.0015 85.7231,26.4204 Z "/><text fill="#000000" font-family="Helvetica" font-size="12" lengthAdjust="spacingAndGlyphs" textLength="98" x="103.75" y="26.2402">AgenceBancaire1</text><line style="stroke: #2F4F4F; stroke-width: 1.5;" x1="8" x2="265" y1="39" y2="39"/><text fill="#000000" font-family="sans-serif" font-size="11" lengthAdjust="spacingAndGlyphs" textLength="65" x="13" y="53.6348">-String nom</text><text fill="#000000" font-family="sans-serif" font-size="11" lengthAdjust="spacingAndGlyphs" textLength="57" x="13" y="66.5898">-String loc</text><text fill="#000000" font-family="sans-serif" font-size="11" lengthAdjust="spacingAndGlyphs" textLength="158" x="13" y="79.5449">-ArrayList&lt;Compte&gt; alCptes</text><line style="stroke: #2F4F4F; stroke-width: 1.5;" x1="8" x2="265" y1="85.8652" y2="85.8652"/><text fill="#000000" font-family="sans-serif" font-size="11" lengthAdjust="spacingAndGlyphs" textLength="132" x="13" y="100.5">+String getProprietaire()</text><text fill="#000000" font-family="sans-serif" font-size="11" lengthAdjust="spacingAndGlyphs" textLength="114" x="13" y="113.4551">+int getNbComptes()</text><text fill="#000000" font-family="sans-serif" font-size="11" lengthAdjust="spacingAndGlyphs" textLength="17" x="13" y="126.4102">...()</text><text fill="#000000" font-family="sans-serif" font-size="11" lengthAdjust="spacingAndGlyphs" textLength="247" x="13" y="139.3652">+void addCompte(Compte pCompteAAjouter)</text><!--MD5=[55a9f513ff876a6970678761cb3a400d]
class Compte--><rect codeLine="19" fill="#F0F8FF" filter="url(#fxllddjtmz1fw)" height="32" id="Compte" rx="5" ry="5" style="stroke: #2F4F4F; stroke-width: 1.5;" width="75" x="301" y="60.5"/><ellipse cx="316" cy="76.5" fill="#ADD1B2" rx="11" ry="11" style="stroke: #2F4F4F; stroke-width: 1.0;"/><path d="M318.4731,82.6431 Q317.8921,82.9419 317.2529,83.0913 Q316.6138,83.2407 315.9082,83.2407 Q313.4014,83.2407 312.0815,81.5889 Q310.7617,79.937 310.7617,76.8159 Q310.7617,73.6865 312.0815,72.0347 Q313.4014,70.3828 315.9082,70.3828 Q316.6138,70.3828 317.2612,70.5322 Q317.9087,70.6816 318.4731,70.9805 L318.4731,73.7031 Q317.8423,73.1221 317.2488,72.8523 Q316.6553,72.5825 316.0244,72.5825 Q314.6797,72.5825 313.9949,73.6492 Q313.3101,74.7158 313.3101,76.8159 Q313.3101,78.9077 313.9949,79.9744 Q314.6797,81.041 316.0244,81.041 Q316.6553,81.041 317.2488,80.7712 Q317.8423,80.5015 318.4731,79.9204 Z "/><text fill="#000000" font-family="Helvetica" font-size="12" lengthAdjust="spacingAndGlyphs" textLength="43" x="330" y="79.7402">Compte</text><!--MD5=[b2130832f0726c3c2ac0b87a7016673a]
class AgenceBancaire2--><rect codeLine="22" fill="#F0F8FF" filter="url(#fxllddjtmz1fw)" height="138.6855" id="AgenceBancaire2" rx="5" ry="5" style="stroke: #2F4F4F; stroke-width: 1.5;" width="232" x="411.5" y="7"/><ellipse cx="474.25" cy="23" fill="#ADD1B2" rx="11" ry="11" style="stroke: #2F4F4F; stroke-width: 1.0;"/><path d="M476.7231,29.1431 Q476.1421,29.4419 475.5029,29.5913 Q474.8638,29.7407 474.1582,29.7407 Q471.6514,29.7407 470.3315,28.0889 Q469.0117,26.437 469.0117,23.3159 Q469.0117,20.1865 470.3315,18.5347 Q471.6514,16.8828 474.1582,16.8828 Q474.8638,16.8828 475.5112,17.0322 Q476.1587,17.1816 476.7231,17.4805 L476.7231,20.2031 Q476.0923,19.6221 475.4988,19.3523 Q474.9053,19.0825 474.2744,19.0825 Q472.9297,19.0825 472.2449,20.1492 Q471.5601,21.2158 471.5601,23.3159 Q471.5601,25.4077 472.2449,26.4744 Q472.9297,27.541 474.2744,27.541 Q474.9053,27.541 475.4988,27.2712 Q476.0923,27.0015 476.7231,26.4204 Z "/><text fill="#000000" font-family="Helvetica" font-size="12" lengthAdjust="spacingAndGlyphs" textLength="98" x="494.75" y="26.2402">AgenceBancaire2</text><line style="stroke: #2F4F4F; stroke-width: 1.5;" x1="412.5" x2="642.5" y1="39" y2="39"/><text fill="#000000" font-family="sans-serif" font-size="11" lengthAdjust="spacingAndGlyphs" textLength="65" x="417.5" y="53.6348">-String nom</text><text fill="#000000" font-family="sans-serif" font-size="11" lengthAdjust="spacingAndGlyphs" textLength="57" x="417.5" y="66.5898">-String loc</text><text fill="#000000" font-family="sans-serif" font-size="11" lengthAdjust="spacingAndGlyphs" textLength="158" x="417.5" y="79.5449">-ArrayList&lt;Compte&gt; alCptes</text><line style="stroke: #2F4F4F; stroke-width: 1.5;" x1="412.5" x2="642.5" y1="85.8652" y2="85.8652"/><text fill="#000000" font-family="sans-serif" font-size="11" lengthAdjust="spacingAndGlyphs" textLength="132" x="417.5" y="100.5">+String getProprietaire()</text><text fill="#000000" font-family="sans-serif" font-size="11" lengthAdjust="spacingAndGlyphs" textLength="114" x="417.5" y="113.4551">+int getNbComptes()</text><text fill="#000000" font-family="sans-serif" font-size="11" lengthAdjust="spacingAndGlyphs" textLength="17" x="417.5" y="126.4102">...()</text><text fill="#000000" font-family="sans-serif" font-size="11" lengthAdjust="spacingAndGlyphs" textLength="220" x="417.5" y="139.3652">+void addCompte() {... new Compte(...)...}</text><!--MD5=[eedb88b35b9efc91f19c0c2eb4f0c7b7]
class AgenceBancaire3--><rect codeLine="32" fill="#F0F8FF" filter="url(#fxllddjtmz1fw)" height="138.6855" id="AgenceBancaire3" rx="5" ry="5" style="stroke: #2F4F4F; stroke-width: 1.5;" width="259" x="7" y="206"/><ellipse cx="83.25" cy="222" fill="#ADD1B2" rx="11" ry="11" style="stroke: #2F4F4F; stroke-width: 1.0;"/><path d="M85.7231,228.1431 Q85.1421,228.4419 84.5029,228.5913 Q83.8638,228.7407 83.1582,228.7407 Q80.6514,228.7407 79.3315,227.0889 Q78.0117,225.437 78.0117,222.3159 Q78.0117,219.1865 79.3315,217.5347 Q80.6514,215.8828 83.1582,215.8828 Q83.8638,215.8828 84.5112,216.0322 Q85.1587,216.1816 85.7231,216.4805 L85.7231,219.2031 Q85.0923,218.6221 84.4988,218.3523 Q83.9053,218.0825 83.2744,218.0825 Q81.9297,218.0825 81.2449,219.1492 Q80.5601,220.2158 80.5601,222.3159 Q80.5601,224.4077 81.2449,225.4744 Q81.9297,226.541 83.2744,226.541 Q83.9053,226.541 84.4988,226.2712 Q85.0923,226.0015 85.7231,225.4204 Z "/><text fill="#000000" font-family="Helvetica" font-size="12" lengthAdjust="spacingAndGlyphs" textLength="98" x="103.75" y="225.2402">AgenceBancaire3</text><line style="stroke: #2F4F4F; stroke-width: 1.5;" x1="8" x2="265" y1="238" y2="238"/><text fill="#000000" font-family="sans-serif" font-size="11" lengthAdjust="spacingAndGlyphs" textLength="65" x="13" y="252.6348">-String nom</text><text fill="#000000" font-family="sans-serif" font-size="11" lengthAdjust="spacingAndGlyphs" textLength="57" x="13" y="265.5898">-String loc</text><text fill="#000000" font-family="sans-serif" font-size="11" lengthAdjust="spacingAndGlyphs" textLength="161" x="13" y="278.5449">+ArrayList&lt;Compte&gt; alCptes</text><line style="stroke: #2F4F4F; stroke-width: 1.5;" x1="8" x2="265" y1="284.8652" y2="284.8652"/><text fill="#000000" font-family="sans-serif" font-size="11" lengthAdjust="spacingAndGlyphs" textLength="132" x="13" y="299.5">+String getProprietaire()</text><text fill="#000000" font-family="sans-serif" font-size="11" lengthAdjust="spacingAndGlyphs" textLength="114" x="13" y="312.4551">+int getNbComptes()</text><text fill="#000000" font-family="sans-serif" font-size="11" lengthAdjust="spacingAndGlyphs" textLength="17" x="13" y="325.4102">...()</text><text fill="#000000" font-family="sans-serif" font-size="11" lengthAdjust="spacingAndGlyphs" textLength="247" x="13" y="338.3652">+void addCompte(Compte pCompteAAjouter)</text><!--MD5=[3a4d7f3813dbea49a84a71776f712e17]
class AgenceBancaire4--><rect codeLine="42" fill="#F0F8FF" filter="url(#fxllddjtmz1fw)" height="112.7754" id="AgenceBancaire4" rx="5" ry="5" style="stroke: #2F4F4F; stroke-width: 1.5;" width="259" x="301" y="219"/><ellipse cx="377.25" cy="235" fill="#ADD1B2" rx="11" ry="11" style="stroke: #2F4F4F; stroke-width: 1.0;"/><path d="M379.7231,241.1431 Q379.1421,241.4419 378.5029,241.5913 Q377.8638,241.7407 377.1582,241.7407 Q374.6514,241.7407 373.3315,240.0889 Q372.0117,238.437 372.0117,235.3159 Q372.0117,232.1865 373.3315,230.5347 Q374.6514,228.8828 377.1582,228.8828 Q377.8638,228.8828 378.5112,229.0322 Q379.1587,229.1816 379.7231,229.4805 L379.7231,232.2031 Q379.0923,231.6221 378.4988,231.3523 Q377.9053,231.0825 377.2744,231.0825 Q375.9297,231.0825 375.2449,232.1492 Q374.5601,233.2158 374.5601,235.3159 Q374.5601,237.4077 375.2449,238.4744 Q375.9297,239.541 377.2744,239.541 Q377.9053,239.541 378.4988,239.2712 Q379.0923,239.0015 379.7231,238.4204 Z "/><text fill="#000000" font-family="Helvetica" font-size="12" lengthAdjust="spacingAndGlyphs" textLength="98" x="397.75" y="238.2402">AgenceBancaire4</text><line style="stroke: #2F4F4F; stroke-width: 1.5;" x1="302" x2="559" y1="251" y2="251"/><text fill="#000000" font-family="sans-serif" font-size="11" lengthAdjust="spacingAndGlyphs" textLength="65" x="307" y="265.6348">-String nom</text><text fill="#000000" font-family="sans-serif" font-size="11" lengthAdjust="spacingAndGlyphs" textLength="57" x="307" y="278.5898">-String loc</text><line style="stroke: #2F4F4F; stroke-width: 1.5;" x1="302" x2="559" y1="284.9102" y2="284.9102"/><text fill="#000000" font-family="sans-serif" font-size="11" lengthAdjust="spacingAndGlyphs" textLength="132" x="307" y="299.5449">+String getProprietaire()</text><text fill="#000000" font-family="sans-serif" font-size="11" lengthAdjust="spacingAndGlyphs" textLength="17" x="307" y="312.5">...()</text><text fill="#000000" font-family="sans-serif" font-size="11" lengthAdjust="spacingAndGlyphs" textLength="247" x="307" y="325.4551">+void addCompte(Compte pCompteAAjouter)</text><!--MD5=[e083dc12e2ff3766ab427be387645d8c]
class AgenceBancaire5--><rect codeLine="50" fill="#F0F8FF" filter="url(#fxllddjtmz1fw)" height="125.7305" id="AgenceBancaire5" rx="5" ry="5" style="stroke: #2F4F4F; stroke-width: 1.5;" width="259" x="595" y="212.5"/><ellipse cx="671.25" cy="228.5" fill="#ADD1B2" rx="11" ry="11" style="stroke: #2F4F4F; stroke-width: 1.0;"/><path d="M673.7231,234.6431 Q673.1421,234.9419 672.5029,235.0913 Q671.8638,235.2407 671.1582,235.2407 Q668.6514,235.2407 667.3315,233.5889 Q666.0117,231.937 666.0117,228.8159 Q666.0117,225.6865 667.3315,224.0347 Q668.6514,222.3828 671.1582,222.3828 Q671.8638,222.3828 672.5112,222.5322 Q673.1587,222.6816 673.7231,222.9805 L673.7231,225.7031 Q673.0923,225.1221 672.4988,224.8523 Q671.9053,224.5825 671.2744,224.5825 Q669.9297,224.5825 669.2449,225.6492 Q668.5601,226.7158 668.5601,228.8159 Q668.5601,230.9077 669.2449,231.9744 Q669.9297,233.041 671.2744,233.041 Q671.9053,233.041 672.4988,232.7712 Q673.0923,232.5015 673.7231,231.9204 Z "/><text fill="#000000" font-family="Helvetica" font-size="12" lengthAdjust="spacingAndGlyphs" textLength="98" x="691.75" y="231.7402">AgenceBancaire5</text><line style="stroke: #2F4F4F; stroke-width: 1.5;" x1="596" x2="853" y1="244.5" y2="244.5"/><text fill="#000000" font-family="sans-serif" font-size="11" lengthAdjust="spacingAndGlyphs" textLength="65" x="601" y="259.1348">-String nom</text><text fill="#000000" font-family="sans-serif" font-size="11" lengthAdjust="spacingAndGlyphs" textLength="57" x="601" y="272.0898">-String loc</text><text fill="#000000" font-family="sans-serif" font-size="11" lengthAdjust="spacingAndGlyphs" textLength="91" x="601" y="285.0449">-Compte compte</text><line style="stroke: #2F4F4F; stroke-width: 1.5;" x1="596" x2="853" y1="291.3652" y2="291.3652"/><text fill="#000000" font-family="sans-serif" font-size="11" lengthAdjust="spacingAndGlyphs" textLength="132" x="601" y="306">+String getProprietaire()</text><text fill="#000000" font-family="sans-serif" font-size="11" lengthAdjust="spacingAndGlyphs" textLength="17" x="601" y="318.9551">...()</text><text fill="#000000" font-family="sans-serif" font-size="11" lengthAdjust="spacingAndGlyphs" textLength="247" x="601" y="331.9102">+void addCompte(Compte pCompteAAjouter)</text><!--MD5=[e72a44606d075720fc13559b79ff5c8c]
link AgenceBancaire1 to Compte--><!--MD5=[08849b2f9c7f3c5746c17bf3594a2f23]
link Compte to AgenceBancaire2--><!--MD5=[5c925fdcda312f88e2ea213358b50d79]
link AgenceBancaire1 to AgenceBancaire3--><!--MD5=[5e80470f949a76aa54ce8e7a44f5ca00]
link AgenceBancaire3 to AgenceBancaire4--><!--MD5=[bd9586b33b9f1dec5149969fa9cdfb0f]
link AgenceBancaire4 to AgenceBancaire5--><text fill="#888888" font-family="sans-serif" font-size="10" font-style="italic" lengthAdjust="spacingAndGlyphs" textLength="285" x="285" y="367.3535">Diagram generated using http://plantuml.sourceforge.net.</text><!--MD5=[845a7917cd5592e3785c08476067b3ac]
@startuml
'- - - - - - - - - - - - - - - - - - - - - - - - - - - - - - - - - - -
' UML concepts illustrated
' JMB 2020
'- - - - - - - - - - - - - - - - - - - - - - - - - - - - - - - - - - -

!include config.cfg
'skinparam classAttributeIconSize 0

class AgenceBancaire1 {
	-String nom
	-String loc
	-ArrayList<Compte> alCptes
	+String getProprietaire()
	+int getNbComptes()
	...()
	+void addCompte(Compte pCompteAAjouter)
}

class Compte {
}

class AgenceBancaire2 {
	-String nom
	-String loc
	-ArrayList<Compte> alCptes
	+String getProprietaire()
	+int getNbComptes()
	...()
	+void addCompte() {... new Compte(...)...}
}

class AgenceBancaire3 {
	-String nom
	-String loc
	+ArrayList<Compte> alCptes
	+String getProprietaire()
	+int getNbComptes()
	...()
	+void addCompte(Compte pCompteAAjouter)
}

class AgenceBancaire4 {
	-String nom
	-String loc
	+String getProprietaire()
	...()
	+void addCompte(Compte pCompteAAjouter)
}

class AgenceBancaire5 {
	-String nom
	-String loc
	-Compte compte
	+String getProprietaire()
	...()
	+void addCompte(Compte pCompteAAjouter)
}



@enduml

@startuml


hide empty members
hide empty methods

footer <i>Diagram generated using http://plantuml.sourceforge.net.</i>

skinparam classAttributeIconSize 0
skinparam package {
	BackgroundColor empty
	BorderColor DarkSlateGray
	ArrowColor Black
	FontColor Black
	FontSize 12
	FontName Helvetica
}
skinparam roundcorner 10

skinparam class {
	BackgroundColor AliceBlue
	BorderColor DarkSlateGray
	ArrowColor Black
	FontColor Black
	FontSize 12
	FontName Helvetica
}
skinparam arrow {
    MessageAlign center
}

class AgenceBancaire1 {
	-String nom
	-String loc
	-ArrayList<Compte> alCptes
	+String getProprietaire()
	+int getNbComptes()
	...()
	+void addCompte(Compte pCompteAAjouter)
}

class Compte {
}

class AgenceBancaire2 {
	-String nom
	-String loc
	-ArrayList<Compte> alCptes
	+String getProprietaire()
	+int getNbComptes()
	...()
	+void addCompte() {... new Compte(...)...}
}

class AgenceBancaire3 {
	-String nom
	-String loc
	+ArrayList<Compte> alCptes
	+String getProprietaire()
	+int getNbComptes()
	...()
	+void addCompte(Compte pCompteAAjouter)
}

class AgenceBancaire4 {
	-String nom
	-String loc
	+String getProprietaire()
	...()
	+void addCompte(Compte pCompteAAjouter)
}

class AgenceBancaire5 {
	-String nom
	-String loc
	-Compte compte
	+String getProprietaire()
	...()
	+void addCompte(Compte pCompteAAjouter)
}



@enduml

PlantUML version 1.2020.18(Wed Sep 30 21:40:44 CEST 2020)
(GPL source distribution)
Java Runtime: OpenJDK Runtime Environment
JVM: OpenJDK 64-Bit Server VM
Default Encoding: UTF-8
Language: fr
Country: FR
--></g></svg>